<svg viewBox="0 0 54 54" fill="#fff" xmlns="http://www.w3.org/2000/svg">
                    <path
                      d="M27 8c-9.374 0-17 7.626-17 17 0 7.112 4.391 13.412 11 15.9V50c0 .553.447 1 1 1h1v2c0 .553.447 1 1 1h6c.553 0 1-.447 1-1v-2h1c.553 0 1-.447 1-1v-9.1c6.609-2.488 11-8.788 11-15.9 0-9.374-7.626-17-17-17zm3 41c-.553 0-1 .447-1 1v2h-4v-2c0-.553-.447-1-1-1h-1v-5h8v5h-1zm1.688-9.758c-.411.135-.688.52-.688.95V42h-8v-1.808c0-.432-.277-.815-.688-.95C16.145 37.214 12 31.49 12 25c0-8.271 6.729-15 15-15s15 6.729 15 15c0 6.49-4.145 12.214-10.312 14.242z" />
                    <path
                      d="M27 6c.553 0 1-.447 1-1V1c0-.553-.447-1-1-1s-1 .447-1 1v4c0 .553.447 1 1 1zM51 24h-4c-.553 0-1 .447-1 1s.447 1 1 1h4c.553 0 1-.447 1-1s-.447-1-1-1zM7 24H3c-.553 0-1 .447-1 1s.447 1 1 1h4c.553 0 1-.447 1-1s-.447-1-1-1zM43.264 7.322l-2.828 2.828c-.391.391-.391 1.023 0 1.414.195.195.451.293.707.293s.512-.098.707-.293l2.828-2.828c.391-.391.391-1.023 0-1.414s-1.023-.391-1.414 0zM12.15 38.436l-2.828 2.828c-.391.391-.391 1.023 0 1.414.195.195.451.293.707.293s.512-.098.707-.293l2.828-2.828c.391-.391.391-1.023 0-1.414s-1.023-.391-1.414 0zM41.85 38.436c-.391-.391-1.023-.391-1.414 0s-.391 1.023 0 1.414l2.828 2.828c.195.195.451.293.707.293s.512-.098.707-.293c.391-.391.391-1.023 0-1.414l-2.828-2.828zM12.15 11.564c.195.195.451.293.707.293s.512-.098.707-.293c.391-.391.391-1.023 0-1.414l-2.828-2.828c-.391-.391-1.023-.391-1.414 0s-.391 1.023 0 1.414l2.828 2.828zM27 13c-6.617 0-12 5.383-12 12 0 .553.447 1 1 1s1-.447 1-1c0-5.514 4.486-10 10-10 .553 0 1-.447 1-1s-.447-1-1-1z" />
                  </svg>