<svg viewBox="0 0 60.062 60.062" fill="#fff" xmlns="http://www.w3.org/2000/svg">
                    <path
                      d="M60.046 11.196c.004-.024.011-.048.013-.072a.873.873 0 00-.012-.28c-.018-.099-.051-.196-.1-.289a.816.816 0 00-.036-.061c-.062-.091-.137-.166-.221-.23-.019-.014-.041-.022-.061-.035a.85.85 0 00-.348-.141c-.073-.015-.146-.022-.222-.02-.04.001-.078.003-.118.009-.026.004-.051 0-.077.006L.798 22.046a.876.876 0 00-.788.839c-.059.418.15.828.523 1.025l16.632 8.773 2.917 16.187a.89.89 0 00.129.391c.033.111.087.214.177.372.047.058.096.111.152.156.009.007.015.018.025.025.076.051.126.063.238.123.027.01.052.022.08.03a.873.873 0 00.28.044h.015c.277 0 .527-.124.712-.315l11.079-7.386 11.6 7.54c.164.106.354.161.545.161a.89.89 0 00.315-.051c.288-.096.518-.318.623-.604l13.996-37.989c.013-.034.024-.069.033-.105.004-.015.005-.03.008-.044.003-.016.005-.028.007-.04zM48.464 17.579L24.471 35.22a1.15 1.15 0 00-.248.279c-.037.06-.068.122-.092.188-.005.013-.013.023-.017.036l-.006.01-2.75 8.937-2.179-12.091 29.285-14.999zm-25.556 29.015l2.726-9.004 4.244 2.759 1.214.789-4.124 2.749-4.06 2.707zm29.136-33.096L18.071 30.899l-14.14-7.458 47.113-9.943zM44.559 47.504L29.154 37.492l-2.333-1.517 30.154-22.172L44.559 47.504z" />
                  </svg>