<svg viewBox="0 0 200 200" fill="#808080" xmlns="http://www.w3.org/2000/svg" >
  <path d="M137.51 120.75zm-14.2-16.4h-.1.1z"/>
  <path d="M169.61 141.14h5.64l3.33 5.5 3.31-5.5h5.61l-6.38 9.49v6.84h-5.1v-6.84l-6.41-9.49zm-25.09 0h4.74l6.16 9.02v-9.02h4.8v16.33h-4.8l-6.13-8.97v8.97h-4.77v-16.33zm-16.52 10.11-1.79-5.87-1.8 5.87h3.59zm1.08 3.53h-5.76l-.83 2.69h-5.18l6.19-16.33h5.56l6.16 16.33h-5.32l-.82-2.69zm-29.28-6.66h1.25c.99 0 1.68-.17 2.08-.51.4-.34.6-.77.6-1.3 0-.51-.17-.95-.52-1.3-.34-.36-.99-.54-1.95-.54h-1.46v3.65zm-5.1-6.98h8.45c1.84 0 3.22.43 4.14 1.3.91.87 1.37 2.11 1.37 3.72 0 1.65-.5 2.94-1.5 3.87-1 .93-2.53 1.39-4.58 1.39h-2.78v6.04h-5.1v-16.32zm-29.34 0h6.7l2.55 9.94 2.56-9.94h6.67v16.33h-4.16v-12.45l-3.21 12.45h-3.76l-3.2-12.45v12.45h-4.16v-16.33zm-22.31 8.19c0 1.65.31 2.83.93 3.55.62.72 1.46 1.08 2.53 1.08 1.09 0 1.94-.35 2.54-1.06.6-.71.9-1.97.9-3.8 0-1.54-.31-2.66-.94-3.36-.63-.71-1.47-1.06-2.54-1.06-1.03 0-1.85.36-2.47 1.08-.62.71-.93 1.9-.93 3.56zm-5.07-.01c0-2.66.75-4.74 2.24-6.22 1.5-1.49 3.58-2.23 6.25-2.23 2.74 0 4.84.73 6.33 2.19 1.48 1.46 2.22 3.5 2.22 6.13 0 1.91-.32 3.47-.97 4.69-.65 1.22-1.58 2.17-2.8 2.85-1.22.68-2.75 1.02-4.57 1.02-1.85 0-3.39-.29-4.6-.88-1.21-.59-2.2-1.52-2.95-2.79-.76-1.27-1.14-2.86-1.14-4.77zm-13.92 1.47 4.45 1.33c-.3 1.24-.77 2.28-1.42 3.11-.64.83-1.44 1.46-2.4 1.88-.95.42-2.17.63-3.64.63-1.79 0-3.25-.26-4.39-.77-1.13-.52-2.11-1.43-2.93-2.72-.82-1.3-1.24-2.96-1.24-4.98 0-2.7.72-4.77 2.17-6.23 1.45-1.45 3.5-2.17 6.14-2.17 2.07 0 3.7.41 4.89 1.25 1.18.83 2.07 2.11 2.64 3.84l-4.48.98c-.16-.49-.32-.86-.49-1.08-.29-.38-.64-.68-1.04-.89-.41-.21-.87-.31-1.38-.31-1.16 0-2.04.46-2.65 1.38-.46.68-.7 1.75-.7 3.21 0 1.81.28 3.04.83 3.72.55.67 1.33 1 2.33 1 .97 0 1.71-.27 2.2-.81.48-.54.84-1.33 1.07-2.36z"/>
  <path d="M80.91 60.81l30.36 69.97 38.03-88.53h-15.94l-22.09 51.42-22.31-51.42h-16.11l-22.31 51.42-22.09-51.42H12.51l38.03 88.53z"/>
  <path d="M171.7 114.25h-46.08c-.67 1.55-5.15 12-5.93 13.8l67.8.03v-13.82l-15.79-.01z"/>
  <path d="M135.16 92.04l52.33.04V78.26h-46.4l-5.93 13.78z"/>
  <path d="M150.62 56.05l36.87.03V42.26h-30.94l-5.93 13.79z"/>
</svg>