<svg viewBox="0 0 200 200" fill="#808080" xmlns="http://www.w3.org/2000/svg">
  <path d="M190.1 101.8h-2.6l-2-2.3c-1.3 1.6-2.8 2.5-5 2.5-3.1 0-5.6-2.1-5.6-5.3 0-2.5 1.6-3.8 3.3-4.9-.9-1.1-1.6-2.2-1.6-3.7 0-2.7 2.3-4.3 4.7-4.3 2.2 0 4.3 1.7 4.3 4.1 0 2.3-1.6 3.5-3.2 4.4l2.9 3 1.2-2 2.2 1.1-1.7 2.8 3.1 3.5v-2.9zm-10.2-8.3c-1.2.7-2.5 1.8-2.5 3.1 0 1.7 1.5 2.9 3.2 2.9 1.3 0 2.4-.8 3.2-1.9l-3.9-4.1zm-.7-5.5c0 .8.7 1.9 1.4 2.7 1.1-.6 2.5-1.5 2.5-2.8 0-1-.8-1.7-1.9-1.7-1.1 0-2 .8-2 1.8z"/>
  <path d="M64.4 81.8H50.4V67.6h-5.2v33.9h5.2V86.9h14v14.6h5.1V67.6h-5.1v14.2z"/>
  <path d="M91.4 66.9c-4.6 0-9.1 1.9-12.4 5.2-3.3 3.4-5.1 7.8-5.1 12.4 0 4.6 1.8 9 5.1 12.4 3.2 3.3 7.6 5.2 12.4 5.2 4.7 0 9.1-1.8 12.4-5.2 3.3-3.4 5.1-7.8 5.1-12.4 0-4.6-1.8-9-5.1-12.4-3.3-3.3-7.7-5.1-12.4-5.1zm0 30c-3.2 0-6.3-1.3-8.6-3.7-2.3-2.3-3.6-5.4-3.6-8.7 0-3.3 1.3-6.4 3.6-8.7 2.3-2.4 5.4-3.7 8.6-3.7 3.3 0 6.4 1.3 8.7 3.7 2.3 2.3 3.6 5.4 3.6 8.7 0 3.3-1.3 6.4-3.6 8.7-2.3 2.4-5.4 3.7-8.7 3.7z"/>
  <path d="m128.8 83.8-11-16.2v-.1h-4.2v34h5.1V78.1l8.6 12.7v.1h2.9l8.6-12.7v23.4h5.1V67.5h-4l-11 16.3zm25.9 12.6v-9.3h15.2v-5.2h-15.2v-9.2h15.6v-5.1h-20.8v33.9h20.8v-5.1h-15.6z"/>
  <path d="M57.2 123.7h10a9.7 9.7 0 0 1-8.2 5c-5.3 0-9.2-4.2-9.2-9.8 0-5.5 4-9.7 9.2-9.7 3.4 0 7.5 1.5 8.6 5.8l.1.2h4.8l-.1-.4c-1.5-7.6-8.2-10.2-13.4-10.2-7.9 0-13.8 6.1-13.8 14.2 0 8.2 5.8 14.2 13.8 14.2 5 0 10-3.1 12.2-7.5v.1l.6-1.4c.4-1 .6-2.6.8-4.9v-.3H57.2v4.7z"/>
  <path d="m83.7 104.8-11 27.9h4.8l2.6-6.8h10.5l2.6 6.8H98l-11-27.9h-3.3zm5.2 16.8h-7.2l3.6-9.5 3.6 9.5z"/>
  <path d="M154.4 121.1h12.2v-4.5h-12.2v-7h12.5v-4.4h-17v27.4h17v-4.4h-12.5v-7.1zm32.2-16-12.6 18.3v-18.3h-3.5v27.5h4.5v-18.1l12.5 18v.1h3.5v-27.5h-4.4z"/>
  <path d="M132.8 105.2h-10v19.5h4.5v-15.1h5.5c6.2 0 9.1 4.8 9.1 9.3 0 4.4-2.8 9.2-9.1 9.2h-15.5l-4.8-5.7c4.1-.9 6.7-4.2 6.7-8.4 0-4.3-2.8-8.9-9.1-8.9H100v27.5h4.4v-23h5.7c3.1 0 4.6 2.3 4.6 4.4s-1.4 4.4-4.6 4.4h-4.8v2.3l9.9 11.9h17.6c6.5 0 13.5-4.3 13.5-13.7 0-9.3-7-13.6-13.5-13.6z"/>
  <path d="M10.6 78.2c-.9.3-1.6 1.4-1.6 2.3v39.3c0 .9.7 2 1.6 2.3l26.9 10.3c.9.3 1.6-.2 1.6-1.1V69c0-.9-.7-1.4-1.6-1.1L10.6 78.2zm21.7 42.7c0 .9-.7 1.4-1.6 1.1l-13.9-4.7c-.9-.3-1.6-1.3-1.6-2.2V85.2c0-.9.7-1.9 1.6-2.2l13.9-4.7c.9-.3 1.6.2 1.6 1.1v41.5z"/>
  <path d="M35.7 101.4c0 .4-.8.7-1.7.7H13.6c-.9 0-1.7-.3-1.7-.7s.8-.7 1.7-.7H34c.9 0 1.7.3 1.7.7z"/>
  <path d="M23.8 120.7c-.4 0-.7-.8-.7-1.7V77.8c0-.9.3-1.7.7-1.7s.7.8.7 1.7V119c0 .9-.3 1.7-.7 1.7z"/>
</svg>