<svg viewBox="0 0 200 200" fill="#808080" xmlns="http://www.w3.org/2000/svg">
  <path d="M58 71.2c2.7 4.2 4.9 9.7 7 15 33.9-20.9 75-39 98.2-41 21.3-1.9 31.5 9.3 24.6 27.2-5.2 13.7-34.1 55.5-51.8 54.8-13.9-.4-10.8-16.8-14.7-25.3-3.5 3.6-9.8 12.7-12.1 15.6-23.4 28.8-38.1.8-45.4-20.7-20.1 11.5-38.7 24.5-47 35.7-3.5 4.8-5.5 8.9-1.3 13.7l1.6 1.7-2.5-.6c-7.1-3.3-4.5-11.8-1.6-16.7 7.2-12.4 25.9-27.7 48.4-42-.3-.9-.5-1.8-.7-2.6-1.6-5.9-2.7-9.9-2.7-15.3zm10.4 23h0c2.7 6 14.3 33 24.5 27.4 11.9-6.6 19.9-36.6 33.6-29.2 6.5 3.5 8 15 9.5 21.2.2.9.4 2 .9 2.9 10.5-3.5 30.6-33.9 35-43 1.3-2.9 5.9-13 2.1-15.1-9.4-5.2-41.6 6.3-51.3 10-13.7 5.1-34.5 14.7-54.3 25.8zm68.7 22.7zm-14.2-16.4h.1-.1z"/>
  <path d="m35.3 144.9 1.6 1.4c-.9.8-2.2 1.4-4 1.4-1.5 0-2.9-.5-3.9-1.4-1.1-1-1.6-2.2-1.6-3.5 0-1.4.6-2.6 1.6-3.5 1.1-1 2.4-1.5 3.9-1.5 1.7 0 3 .7 4 1.5l-1.6 1.4c-.7-.6-1.5-.8-2.4-.8-.9 0-1.7.2-2.4.8-.7.6-1 1.3-1 2.1s.3 1.5 1 2.1c.6.5 1.4.8 2.4.8 1 0 1.8-.3 2.4-.8zm36.1-7.2v10h2.2v-4l3.2 3.9 3.2-3.9v4h2.2v-10l-5.4 6.5-5.4-6.5zm-12.3 5.1c0 1.4-.6 2.5-1.6 3.5-1.1 1-2.4 1.4-4 1.4-1.5 0-2.9-.5-4-1.4-1.1-1-1.6-2.1-1.6-3.5 0-1.4.6-2.5 1.6-3.5 1.1-1 2.4-1.5 4-1.5 1.5 0 2.9.5 4 1.5 1.1 1 1.6 2.1 1.6 3.5zm-2.2 0c0-.8-.3-1.5-1-2.1-.7-.6-1.5-.8-2.4-.8-.9 0-1.7.2-2.4.8-.7.6-1 1.3-1 2.1 0 .8.3 1.5 1 2.1.7.6 1.4.9 2.4.9.9 0 1.7-.3 2.4-.9.7-.6 1-1.3 1-2.1zm45.7-1.5c0 1-.4 1.8-1.1 2.4-.7.7-1.7 1-2.7 1h-1.6v2.9h-2.2v-9.7h3.9c1.1 0 2 .3 2.7 1 .7.7 1.1 1.5 1.1 2.4zm-2.2 0c0-.8-.8-1.5-1.7-1.5h-1.6v3h1.6c1 0 1.7-.7 1.7-1.5zm61.8-3.4-2 3.3-2-3.3h-2.5l3.4 5.6v4.2h2.2v-4.2l3.4-5.6h-2.5zm-21 5.4-6.6-5.6v10h2.2v-5.4l6.7 5.6v-10h-2.2v5.4zm-24-5.6 5 9.9h-2.4l-.7-1.5h-3.8l-.8 1.5h-2.4l5.1-9.9zm0 4.7-1 2h2l-1-2z"/>
  <path d="M24.6 155.1c1.6 0 2.8-1.1 2.8-2.5s-1.2-2.5-2.8-2.5c-1.5 0-2.8 1.1-2.8 2.5s1.3 2.5 2.8 2.5z"/>
</svg>