<svg viewBox="0 0 200 200" class="u-svg-link" preserveAspectRatio="xMidYMin slice" fill="#808080" xmlns="http://www.w3.org/2000/svg">
    <polygon points="22.66,131.13 78.91,18.64 92.97,18.64 36.72,131.13"/>
    <polygon points="92.97,74.88 64.85,131.13 50.78,131.13 78.91,74.88"/>
    <polygon points="177.34,131.13 121.09,18.64 107.03,18.64 163.28,131.13"/>
    <polygon points="121.09,74.88 107.03,74.88 78.91,18.63 92.97,18.63"/>
    <polygon points="149.22,131.13 135.15,131.13 114.06,88.94 128.12,88.94"/>
    <rect x="75.97" y="88.94" width="75.05" height="14.06"/>
    <path d="M36.63,172.55c-1.04,0.52-3.11,1.04-5.77,1.04c-6.16,0-10.79-3.89-10.79-11.05c0-6.84,4.63-11.47,11.41-11.47 c2.72,0,4.44,0.58,5.19,0.97l-0.68,2.3c-1.07-0.52-2.59-0.91-4.41-0.91c-5.12,0-8.52,3.27-8.52,9.01c0,5.35,3.08,8.78,8.39,8.78 c1.72,0,3.47-0.36,4.6-0.91L36.63,172.55z"/>
    <path d="M61.4,162.12c0,7.52-4.57,11.51-10.14,11.51c-5.77,0-9.82-4.47-9.82-11.08c0-6.94,4.31-11.47,10.14-11.47 C57.54,151.06,61.4,155.63,61.4,162.12z M44.44,162.47c0,4.67,2.53,8.85,6.97,8.85c4.47,0,7-4.12,7-9.08 c0-4.34-2.27-8.88-6.97-8.88C46.78,153.37,44.44,157.68,44.44,162.47z"/>
    <path d="M86.71,163.67c-0.16-3.05-0.36-6.71-0.32-9.43h-0.1c-0.75,2.56-1.65,5.28-2.75,8.3l-3.86,10.6h-2.14L74,162.73 c-1.04-3.08-1.91-5.9-2.53-8.49h-0.06c-0.06,2.72-0.23,6.38-0.42,9.66l-0.58,9.37h-2.69l1.52-21.84h3.6l3.73,10.57 c0.91,2.69,1.65,5.09,2.2,7.36h0.1c0.55-2.2,1.33-4.6,2.3-7.36l3.89-10.57h3.6l1.36,21.84h-2.75L86.71,163.67z"/>
    <path d="M97.6,151.68c1.36-0.23,3.14-0.42,5.41-0.42c2.79,0,4.83,0.65,6.13,1.81c1.2,1.04,1.91,2.63,1.91,4.57 c0,1.98-0.58,3.53-1.69,4.67c-1.49,1.59-3.92,2.4-6.68,2.4c-0.84,0-1.62-0.03-2.27-0.2v8.75H97.6V151.68z M100.42,162.21 c0.62,0.16,1.39,0.23,2.33,0.23c3.4,0,5.48-1.65,5.48-4.67c0-2.88-2.04-4.28-5.15-4.28c-1.23,0-2.17,0.1-2.66,0.23V162.21z"/>
    <path d="M118.9,166.39l-2.27,6.87h-2.92l7.42-21.84h3.4l7.45,21.84h-3.01l-2.33-6.87H118.9z M126.06,164.19l-2.14-6.29 c-0.49-1.43-0.81-2.72-1.13-3.99h-0.06c-0.32,1.3-0.68,2.63-1.1,3.95l-2.14,6.32H126.06z"/>
    <path d="M138.44,173.26v-21.84h3.08l7,11.05c1.62,2.56,2.88,4.86,3.92,7.1l0.07-0.03c-0.26-2.92-0.32-5.57-0.32-8.98v-9.14h2.66 v21.84h-2.85l-6.94-11.08c-1.52-2.43-2.98-4.93-4.08-7.29l-0.1,0.03c0.16,2.75,0.23,5.38,0.23,9.01v9.33H138.44z"/>
    <path d="M167.64,173.26V164l-6.9-12.57h3.21l3.08,6.03c0.84,1.65,1.49,2.98,2.17,4.5h0.07c0.62-1.43,1.36-2.85,2.2-4.5l3.14-6.03 h3.21l-7.32,12.54v9.3H167.64z"/>
</svg>
