<svg viewBox="0 0 200 200" class="u-svg-link" preserveAspectRatio="xMidYMin slice" fill="#808080" xmlns="http://www.w3.org/2000/svg">
    <path class="st0" d="M30.5,176.1v-13.9h6.6c3,0,4.4,1.1,4.4,3.3c0,1.8-1.4,3.1-4.3,4l5.3,6.5h-2.7l-5-6.2v-1.2
    c3-0.4,4.5-1.4,4.5-3.1c0-1.3-0.8-1.9-2.5-1.9h-4.4v12.4H30.5z"></path>
    <path class="st0" d="M54.9,162.3v1.5h-8.2v4.7h7.8v1.5h-7.8v4.8h8.3v1.5H44.7v-13.9H54.9z"></path>
    <path class="st0" d="M58.6,176.1h-2.1l6.6-13.9h2.2l6.6,13.9h-2.2l-2-4.4h-5.2l0.6-1.5h3.9l-2.9-6.3L58.6,176.1z"></path>
    <path class="st0" d="M76.1,162.3v12.4h8.1v1.5H74.1v-13.9H76.1z"></path>
    <path class="st0" d="M102.3,162.3v1.5h-8.2v4.7h7.8v1.5h-7.8v4.8h8.3v1.5H92.1v-13.9H102.3z"></path>
    <path class="st0" d="M105.3,175.6V174c1.6,0.5,3.4,0.8,5.3,0.8c2.7,0,4-0.9,4-2.6c0-1.5-1-2.2-3-2.2h-2c-3.3,0-4.9-1.3-4.9-3.8
    c0-2.6,2.1-4,6.3-4c1.8,0,3.5,0.2,5.1,0.6v1.6c-1.6-0.5-3.2-0.8-5.1-0.8c-2.8,0-4.2,0.8-4.2,2.5c0,1.5,1,2.2,2.9,2.2h2
    c3.3,0,5,1.3,5,3.8c0,2.7-2,4.1-6,4.1C108.7,176.2,106.9,176,105.3,175.6z"></path>
    <path class="st0" d="M130.1,162.3v1.5h-4.9v12.4h-2v-12.4h-4.9v-1.5H130.1z"></path>
    <path class="st0" d="M131.4,176.1h-2.1l6.6-13.9h2.2l6.6,13.9h-2.2l-2-4.4h-5.1l0.6-1.5h3.9l-2.9-6.3L131.4,176.1z"></path>
    <path class="st0" d="M155.7,162.3v1.5h-4.9v12.4h-2v-12.4h-4.9v-1.5H155.7z"></path>
    <path class="st0" d="M168.3,162.3v1.5h-8.2v4.7h7.8v1.5h-7.8v4.8h8.3v1.5h-10.3v-13.9H168.3z"></path>
    <polygon class="st0" points="169.5,146.9 69.3,146.9 69.3,87.1 126.8,87.1 126.8,124 114.8,124 114.8,97.8 81.4,97.8 81.4,136.2 
    157.4,136.2 157.4,77.2 100.7,37.4 73.5,56.5 73.5,34.9 57.2,34.9 57.2,67.9 44,77.2 44,146.9 31.9,146.9 31.9,71.9 45.2,62.6 
    45.2,24.2 85.6,24.2 85.6,34.3 100.7,23.8 169.5,71.9 "></polygon>
</svg>
