<svg viewBox="0 0 128 128" xmlns="http://www.w3.org/2000/svg">
                    <path
                      d="M78.9 15.9c2.1 0 3.7 1.7 3.7 3.7v3.7H45.4v-3.7c0-2 1.7-3.7 3.7-3.7h29.8zm39.7 14.8-11.6 34.5c-.5 1.5-1.9 2.5-3.5 2.5H82.6v-3.7c0-2-1.7-3.7-3.7-3.7H49.1c-2.1 0-3.7 1.7-3.7 3.7v3.7H24.5c-1.6 0-3-1-3.5-2.5L9.4 30.7h109.2zm1.5 19.1v58.6c0 2-1.7 3.7-3.7 3.7H11.7c-2.1 0-3.7-1.7-3.7-3.7V49.8l5.9 17.7c1.5 4.5 5.8 7.6 10.6 7.6H45v3.7c0 2 1.7 3.7 3.7 3.7h29.8c2.1 0 3.7-1.7 3.7-3.7v-3.7h20.9c4.8 0 9.1-3 10.6-7.6l6-17.7zm-44.9 17.9v7.4H53.1v-7.4h22.4zm15.3-44.9v-3.2c0-6.4-5.2-11.6-11.6-11.6H49.1c-6.4 0-11.7 5.2-11.7 11.6v3.2H7.9C3.5 20.8 0 24.3 0 28.7v77.7c0 6.4 5.2 11.6 11.7 11.6h104.7c6.4 0 11.7-5.2 11.7-11.6V28.7c0-4.4-3.6-7.9-7.9-7.9H90.4z" fill="#DB545A" />
                  </svg>