
<svg viewBox="0 0 128 128" fill="#DB545A" xmlns="http://www.w3.org/2000/svg" xmlns:xlink= "http://www.w3.org/1999/xlink"
>
                    <path
                      d="M44.1 63.9h39.8c4.6 0 8.4-3.9 8.4-8.8v-1.8c0-5.6-2.8-10.7-7.3-13.3-2.4-1.4-5.4-2.9-8.8-4.1 2.8-3 4.6-6.9 4.6-11.3C80.7 15.4 73.2 8 64 8s-16.7 7.4-16.7 16.5c0 4.4 1.7 8.4 4.6 11.3-3.4 1.2-6.5 2.7-8.8 4.1-4.5 2.7-7.3 7.7-7.3 13.3v1.8c-.1 4.9 3.7 8.9 8.3 8.9zM64 15.9c4.8 0 8.7 3.9 8.7 8.6 0 4.8-3.9 8.6-8.7 8.6s-8.7-3.9-8.7-8.6S59.2 15.9 64 15.9zm-20.3 37.3c0-2.7 1.3-5.3 3.4-6.5 4-2.3 10.2-5.1 16.9-5.1s12.9 2.8 16.9 5.1c2.1 1.2 3.4 3.8 3.4 6.5v1.8c0 .6-.3.9-.4.9H44.1c-.1 0-.4-.3-.4-.9v-1.8z" />
                    <path
                      d="M29.3 94.1c-2.4-1.4-5.4-2.9-8.8-4.1 2.8-3 4.6-7 4.6-11.3 0-9.1-7.5-16.5-16.7-16.5S-8.3 69.6-8.3 78.7c0 4.4 1.7 8.4 4.6 11.3-3.4 1.2-6.5 2.7-8.8 4.1C-17.1 96.7-19.9 101.8-19.9 107.4v1.8c0 4.9 3.8 8.8 8.4 8.8h39.8c4.6 0 8.4-3.9 8.4-8.8v-1.8c0-5.6-2.8-10.7-7.4-13.3zM8.4 70c4.8 0 8.7 3.9 8.7 8.6 0 4.8-3.9 8.6-8.7 8.6s-8.7-3.9-8.7-8.6S3.6 70 8.4 70zm20.3 39.2c0 .6-.3.9-.4.9h-39.8c-.1 0-.4-.3-.4-.9v-1.8c0-2.7 1.3-5.3 3.4-6.5 4-2.3 10.2-5.1 16.9-5.1s12.9 2.8 16.9 5.1c2.1 1.2 3.4 3.8 3.4 6.5v1.8z" transform="translate(20,0)" />
                    <path
                      d="M100.8 94.1c-2.4-1.4-5.4-2.9-8.8-4.1 2.8-3 4.6-6.9 4.6-11.3 0-9.1-7.5-16.5-16.7-16.5s-16.7 7.4-16.7 16.5c-.1 4.3 1.7 8.3 4.5 11.3-3.4 1.2-6.5 2.7-8.8 4.1-4.5 2.7-7.3 7.7-7.3 13.3v1.8c0 4.9 3.8 8.8 8.4 8.8h39.8c4.6 0 8.4-3.9 8.4-8.8v-1.8c-.1-5.6-2.9-10.7-7.4-13.3zm-21-24.1c4.8 0 8.7 3.9 8.7 8.6 0 4.8-3.9 8.6-8.7 8.6s-8.7-3.9-8.7-8.6 3.9-8.6 8.7-8.6zm20.3 39.2c0 .6-.3.9-.4.9h-39.8c-.1 0-.4-.3-.4-.9v-1.8c0-2.7 1.3-5.3 3.4-6.5 4-2.3 10.2-5.1 16.9-5.1s12.9 2.8 16.9 5.1c2.1 1.2 3.4 3.8 3.4 6.5v1.8z" transform="translate(20,0)" />
                  </svg>
