<svg viewBox="0 0 128 128" xmlns="http://www.w3.org/2000/svg" preserveAspectRatio="xMidYMin slice">
                    <path
                      d="M93.8 13.5l18.4 25.2h-5.7c-2 0-3.6 1.6-3.6 3.6v77.7h-18.3v-77.7c0-2-1.6-3.6-3.6-3.6h-5.7l18.5-25.2ZM71.4 69.1c3.3 0 6 2.7 6 6.1v44.8H59v-44.8c0-3.3 2.7-6.1 6-6.1h6.4ZM45.9 88.5c3.3 0 6 2.7 6 6.1v25.4H33.5v-25.5c0-3.3 2.7-6.1 6-6.1h6.4ZM20.3 107.9c3.3 0 6 2.7 6 6.1v6.1H7.9v-6.1c0-3.3 2.7-6.1 6-6.1h6.4ZM93.5 0l-6.4 8.7-18.4 25.2-9.4 12.8h17.1v15.4c-1.6-0.7-3.4-1-5.2-1h-6.5c-7.7 0-13.9 6.3-13.9 14.1v6.3c-1.6-0.7-3.4-1-5.2-1h-6.4c-7.7 0-13.9 6.3-13.9 14.1v6.3c-1.6-0.7-3.4-1-5.2-1h-6.4c-7.7-0.1-14 6.2-14 14v14.1H110.9V40.6h17.1l-9.4-12.8-18.4-25.2-6.4-8.7Z" fill="#DB545A" />
                  </svg>